<svg xmlns="http://www.w3.org/2000/svg" viewBox="0 0 347.15 230.78"><defs><style>.cls-1,.cls-2{fill:#ccc;}.cls-2{stroke:gray;}.cls-10,.cls-2,.cls-8{stroke-miterlimit:10;}.cls-3{fill:#ff0;}.cls-4{fill:red;}.cls-5{fill:lime;}.cls-6{fill:blue;}.cls-7{fill:#4d4d4d;}.cls-8{fill:#1a1a1a;}.cls-10,.cls-8{stroke:#000;}.cls-9{fill:#333;}.cls-10{fill:none;}.cls-11{fill:#fff;}</style></defs><g id="Capa_2" data-name="Capa 2"><g id="Capa_1-2" data-name="Capa 1"><path class="cls-1" d="M317.81,19.24a64.75,64.75,0,0,1,28.84,53.89v54.36c0,4.68-1.42,9.57-2.69,14.07-8.46,29.78-18.49,57.62-31.73,81.48a14.93,14.93,0,0,1-13,7.74H269.58L250.5,134.62H96.65L77.42,230.78H46.09a14.91,14.91,0,0,1-13-7.74C19.82,199.18,11.43,171.39,3,141.61,1.7,137.11.5,132.41.5,127.73V73.13a64.77,64.77,0,0,1,28.85-53.9H125.5l9.62,19.23H212l9.61-19.23h96.16Z"/><circle class="cls-2" cx="58.19" cy="76.92" r="57.69"/><circle class="cls-2" cx="288.96" cy="76.92" r="57.69"/><circle class="cls-3" cx="288.96" cy="48.08" r="9.62"/><circle class="cls-4" cx="317.81" cy="76.92" r="9.62"/><circle class="cls-5" cx="288.96" cy="105.77" r="9.62"/><circle class="cls-6" cx="260.12" cy="76.92" r="9.62"/><polygon class="cls-7" points="58.19 67.31 48.58 57.69 48.58 38.46 67.81 38.46 67.81 57.69 58.19 67.31"/><polygon class="cls-7" points="77.88 86.54 96.65 86.54 96.65 67.31 77.88 67.31 68.49 76.92 77.88 86.54"/><polygon class="cls-7" points="58.19 86.54 67.81 96.16 67.81 115.39 48.58 115.39 48.58 96.16 58.19 86.54"/><polygon class="cls-7" points="48.58 76.92 38.96 86.54 19.73 86.54 19.73 67.31 38.96 67.31 48.58 76.92"/><path class="cls-7" d="M48.58,0H67.81C87,0,87,19.23,87,19.23H29.35S39,0,48.58,0Z"/><path class="cls-7" d="M298.58,0H279.35c-19.23,0-19.23,19.23-19.23,19.23h57.69S308.19,0,298.58,0Z"/><circle class="cls-8" cx="135.12" cy="115.39" r="19.23"/><circle class="cls-8" cx="212.04" cy="115.39" r="19.23"/><circle class="cls-9" cx="135.12" cy="115.39" r="9.62"/><circle class="cls-9" cx="212.04" cy="115.39" r="9.62"/><polygon class="cls-7" points="125.5 19.23 221.65 19.23 212.04 38.46 135.12 38.46 125.5 19.23"/><polyline class="cls-10" points="125.5 19.23 135.12 38.46 212.04 38.46 221.65 19.23"/><circle class="cls-11" cx="173.58" cy="28.85" r="4.81"/><circle class="cls-11" cx="149.54" cy="72.12" r="4.81"/><circle class="cls-11" cx="202.42" cy="72.12" r="4.81"/></g></g></svg>